<?xml version="1.0" encoding="UTF-8" standalone="no"?>
<!-- Created with Inkscape (http://www.inkscape.org/) -->

<svg
   width="64.000381"
   height="64.000191"
   viewBox="0 0 64.000381 64.000191"
   version="1.1"
   id="svg1"
   xmlns="http://www.w3.org/2000/svg"
   xmlns:svg="http://www.w3.org/2000/svg">
  <defs
     id="defs1" />
  <g
     id="layer1">
    <path
       d="M 64.00038,0 25.591,19.20449 H 25.6 V 33.5106 L 51.2,20.71072 v 11.29364 c 0,6.86969 -3.65062,13.19311 -9.6,16.62796 -5.94938,3.43484 -13.25062,3.43484 -19.2,0 -1.79113,-1.0341 -3.36872,-2.33428 -4.70625,-3.82809 -1.47971,-1.6526 -2.65961,-3.54477 -3.48906,-5.59526 C 13.29353,36.95651 12.8,34.51779 12.8,32.00436 V 25.59974 L 0,31.99967 v 0.005 c 0,4.52863 0.97454,8.9184 2.75,12.93111 2.70262,6.10818 7.28,11.33438 13.25,14.78111 9.89195,5.71107 22.10805,5.71107 32,0 8.73898,-5.0454 14.51686,-13.89183 15.74687,-23.7607 0.16266,-1.30234 0.25351,-2.6205 0.25351,-3.95182 z"
       style="fill:#ffffff;fill-opacity:1;stroke-width:0.8"
       id="path39" />
  </g>
</svg>
